<svg xmlns="http://www.w3.org/2000/svg" viewBox="0 0 143.65 75.55"><defs><style>.cls-1{fill:#898687;}.cls-2{fill:#484444;}.cls-3{fill:#009fe3;}</style></defs><g id="Calque_2" data-name="Calque 2"><g id="Layer_1" data-name="Layer 1"><path class="cls-1" d="M0,55.56l1.42-1.7a5,5,0,0,0,3.25,1.33c1,0,1.57-.39,1.57-1v0c0-.61-.38-.92-2.2-1.38-2.19-.56-3.6-1.17-3.6-3.33v0c0-2,1.58-3.28,3.81-3.28a6.29,6.29,0,0,1,4,1.38L7,49.29a5.07,5.07,0,0,0-2.83-1.07c-.91,0-1.4.42-1.4,1v0c0,.71.47.95,2.35,1.43,2.21.58,3.46,1.37,3.46,3.27v0c0,2.16-1.65,3.37-4,3.37A6.91,6.91,0,0,1,0,55.56Z"/><path class="cls-1" d="M10.45,54.78v-4h-1v-2h1V46.68h2.36v2.13h2v2h-2v3.56c0,.55.23.81.76.81a2.5,2.5,0,0,0,1.17-.29V56.8a3.47,3.47,0,0,1-1.87.49c-1.45,0-2.42-.58-2.42-2.51Z"/><polygon class="cls-1" points="16.1 54.66 18.62 54.66 18.62 57.15 16.1 57.15 16.1 54.66 16.1 54.66"/><polygon class="cls-1" points="24.93 46.26 27.32 46.26 27.32 54.97 32.75 54.97 32.75 57.15 24.93 57.15 24.93 46.26 24.93 46.26"/><path class="cls-1" d="M38.92,54.21v-.42a3.66,3.66,0,0,0-1.51-.31c-1,0-1.63.4-1.63,1.15v0c0,.63.53,1,1.29,1,1.1,0,1.85-.61,1.85-1.46Zm-5.43.54v0c0-1.82,1.38-2.66,3.36-2.66a6,6,0,0,1,2,.34v-.14c0-1-.61-1.52-1.79-1.52a6.12,6.12,0,0,0-2.3.45l-.59-1.8a7.25,7.25,0,0,1,3.23-.67,3.88,3.88,0,0,1,2.82.93,3.64,3.64,0,0,1,.9,2.66v4.84H38.87v-.91a3.19,3.19,0,0,1-2.52,1.06,2.58,2.58,0,0,1-2.86-2.55Z"/><polygon class="cls-1" points="41.57 48.81 43.97 48.81 45.3 53.86 46.87 48.78 48.91 48.78 50.5 53.88 51.87 48.81 54.21 48.81 51.62 57.21 49.49 57.21 47.89 52.09 46.25 57.21 44.14 57.21 41.57 48.81 41.57 48.81"/><path class="cls-1" d="M55,48.81h2.36v1.68A2.56,2.56,0,0,1,60,48.66v2.47h-.13c-1.57,0-2.53.95-2.53,2.94v3.08H55V48.81Z"/><path class="cls-1" d="M66.13,52.33a1.79,1.79,0,0,0-1.76-1.78c-1,0-1.61.7-1.8,1.78Zm-5.88.7v0a4.15,4.15,0,0,1,4.12-4.33c2.79,0,4.06,2.16,4.06,4.52,0,.19,0,.4,0,.62H62.6a1.94,1.94,0,0,0,2,1.64,2.72,2.72,0,0,0,2-.86L68,55.78A4.41,4.41,0,0,1,60.25,53Z"/><path class="cls-1" d="M69.56,48.81h2.37V50a2.93,2.93,0,0,1,2.44-1.33c1.79,0,2.83,1.18,2.83,3.09v5.4H74.83V52.5c0-1.12-.52-1.7-1.43-1.7s-1.47.58-1.47,1.7v4.65H69.56V48.81Z"/><path class="cls-1" d="M77.91,53v0a4.28,4.28,0,0,1,4.37-4.33,4,4,0,0,1,3.32,1.4l-1.44,1.55a2.44,2.44,0,0,0-1.9-.92,2.13,2.13,0,0,0-2,2.27v0a2.13,2.13,0,0,0,2.11,2.3,2.66,2.66,0,0,0,1.92-.88l1.38,1.4a4.21,4.21,0,0,1-3.4,1.52A4.25,4.25,0,0,1,77.91,53Z"/><path class="cls-1" d="M91.8,52.33a1.78,1.78,0,0,0-1.75-1.78,1.87,1.87,0,0,0-1.81,1.78Zm-5.87.7v0a4.14,4.14,0,0,1,4.12-4.33c2.78,0,4.06,2.16,4.06,4.52,0,.19,0,.4,0,.62h-5.8a1.93,1.93,0,0,0,2,1.64,2.72,2.72,0,0,0,2-.86l1.36,1.2A4.41,4.41,0,0,1,85.93,53Z"/><path class="cls-1" d="M.27,67.61v0A5.58,5.58,0,0,1,6,62a6,6,0,0,1,4.28,1.49L8.74,65.26a4,4,0,0,0-2.85-1.1,3.27,3.27,0,0,0-3.12,3.39v0A3.26,3.26,0,0,0,6.06,71a3.8,3.8,0,0,0,2.26-.66V68.82H5.91V66.75h4.73v4.73A7.06,7.06,0,0,1,6,73.2,5.44,5.44,0,0,1,.27,67.61Z"/><polygon class="cls-1" points="12.17 61.67 14.53 61.67 14.53 73.02 12.17 73.02 12.17 61.67 12.17 61.67"/><path class="cls-1" d="M22.41,68.9v0a2.21,2.21,0,0,0-2.19-2.3,2.13,2.13,0,0,0-2.16,2.27v0a2.21,2.21,0,0,0,2.19,2.3,2.13,2.13,0,0,0,2.16-2.27Zm-6.68,0v0a4.37,4.37,0,0,1,4.52-4.34,4.34,4.34,0,0,1,4.5,4.31v0a4.37,4.37,0,0,1-4.53,4.33,4.33,4.33,0,0,1-4.49-4.3Z"/><path class="cls-1" d="M32.22,68.87v0a2,2,0,1,0-4.06,0v0a2,2,0,1,0,4.06,0Zm-4,3.06V73H25.83V61.67h2.36v4.21a3.06,3.06,0,0,1,2.6-1.35c1.94,0,3.79,1.52,3.79,4.31v0c0,2.78-1.81,4.3-3.79,4.3a3.2,3.2,0,0,1-2.6-1.24Z"/><path class="cls-1" d="M40.63,70.08v-.42a3.66,3.66,0,0,0-1.51-.31c-1,0-1.63.4-1.63,1.15v0c0,.64.53,1,1.29,1,1.1,0,1.85-.61,1.85-1.46Zm-5.43.54v0c0-1.82,1.38-2.66,3.36-2.66a5.74,5.74,0,0,1,2,.35v-.14c0-1-.61-1.53-1.79-1.53a6.12,6.12,0,0,0-2.3.45l-.59-1.8a7.38,7.38,0,0,1,3.23-.67,3.84,3.84,0,0,1,2.81.93,3.62,3.62,0,0,1,.91,2.66V73H40.58v-.9a3.22,3.22,0,0,1-2.52,1,2.58,2.58,0,0,1-2.86-2.55Z"/><polygon class="cls-1" points="44.08 61.67 46.44 61.67 46.44 73.02 44.08 73.02 44.08 61.67 44.08 61.67"/><path class="cls-1" d="M61.53,67.61v0a3.3,3.3,0,0,0-3.29-3.42A3.26,3.26,0,0,0,55,67.55v0A3.31,3.31,0,0,0,58.27,71a3.26,3.26,0,0,0,3.26-3.39Zm-9.06,0v0A5.63,5.63,0,0,1,58.27,62,5.57,5.57,0,0,1,64,67.55v0a5.78,5.78,0,0,1-11.56,0Z"/><path class="cls-1" d="M71.68,68.87v0a2,2,0,1,0-4.06,0v0a2,2,0,1,0,4.06,0Zm-4,3.06V73H65.29V61.67h2.36v4.21a3.06,3.06,0,0,1,2.6-1.35c1.94,0,3.79,1.52,3.79,4.31v0c0,2.78-1.82,4.3-3.79,4.3a3.2,3.2,0,0,1-2.6-1.24Z"/><path class="cls-1" d="M74.5,71.91l1-1.55a4.75,4.75,0,0,0,2.63,1c.69,0,1-.24,1-.62v0c0-.51-.81-.68-1.73-1-1.16-.34-2.49-.89-2.49-2.51v0c0-1.69,1.37-2.64,3-2.64a5.81,5.81,0,0,1,3.11,1l-.9,1.64a4.88,4.88,0,0,0-2.26-.78c-.57,0-.87.25-.87.57v0c0,.46.8.68,1.7,1,1.17.39,2.52,1,2.52,2.47v0c0,1.85-1.39,2.69-3.19,2.69a5.8,5.8,0,0,1-3.58-1.26Z"/><path class="cls-1" d="M87.81,68.2a1.78,1.78,0,0,0-1.76-1.77c-1,0-1.61.7-1.8,1.77Zm-5.88.7v0a4.15,4.15,0,0,1,4.12-4.34c2.79,0,4.06,2.16,4.06,4.52,0,.19,0,.41,0,.63h-5.8a1.93,1.93,0,0,0,2,1.63,2.72,2.72,0,0,0,2-.86l1.35,1.2a4.41,4.41,0,0,1-7.76-2.75Z"/><path class="cls-1" d="M91.24,64.68h2.37v1.68a2.57,2.57,0,0,1,2.65-1.83V67h-.12c-1.57,0-2.53,1-2.53,2.94V73H91.24V64.68Z"/><polygon class="cls-1" points="96.68 64.69 99.18 64.69 101.05 70.27 102.93 64.69 105.39 64.69 102.11 73.08 99.96 73.08 96.68 64.69 96.68 64.69"/><path class="cls-1" d="M110.67,70.08v-.42a3.59,3.59,0,0,0-1.51-.31c-1,0-1.63.4-1.63,1.15v0c0,.64.53,1,1.29,1,1.1,0,1.85-.61,1.85-1.46Zm-5.42.54v0c0-1.82,1.38-2.66,3.35-2.66a5.74,5.74,0,0,1,2,.35v-.14c0-1-.61-1.53-1.79-1.53a6.12,6.12,0,0,0-2.3.45l-.59-1.8a7.42,7.42,0,0,1,3.23-.67,3.85,3.85,0,0,1,2.82.93,3.65,3.65,0,0,1,.9,2.66V73h-2.29v-.9a3.2,3.2,0,0,1-2.51,1,2.58,2.58,0,0,1-2.86-2.55Z"/><path class="cls-1" d="M114.63,70.66v-4h-1v-2h1V62.55H117v2.13h2v2h-2v3.56c0,.54.23.81.76.81a2.35,2.35,0,0,0,1.16-.3v1.9a3.5,3.5,0,0,1-1.86.48c-1.45,0-2.43-.58-2.43-2.5Z"/><path class="cls-1" d="M126.12,68.9v0a2.21,2.21,0,0,0-2.19-2.3,2.13,2.13,0,0,0-2.16,2.27v0a2.21,2.21,0,0,0,2.19,2.3,2.13,2.13,0,0,0,2.16-2.27Zm-6.69,0v0A4.38,4.38,0,0,1,124,64.53a4.33,4.33,0,0,1,4.49,4.31v0a4.51,4.51,0,0,1-9,0Z"/><path class="cls-1" d="M129.54,64.68h2.36v1.68a2.57,2.57,0,0,1,2.66-1.83V67h-.13c-1.57,0-2.53,1-2.53,2.94V73h-2.36V64.68Z"/><path class="cls-1" d="M141.19,64.68h2.46l-3.2,8.54c-.64,1.69-1.33,2.33-2.74,2.33a4,4,0,0,1-2.1-.57l.79-1.71a2.21,2.21,0,0,0,1,.32.78.78,0,0,0,.82-.54L135,64.68h2.51l1.89,5.68,1.82-5.68Z"/><path class="cls-2" d="M0,31.21l4.55-5.45C7.7,28.36,11,30,15,30c3.15,0,5.05-1.25,5.05-3.3v-.1c0-1.95-1.2-2.95-7-4.45-7-1.8-11.6-3.75-11.6-10.7v-.1C1.4,5,6.5.81,13.65.81a20.26,20.26,0,0,1,13,4.45l-4,5.8c-3.1-2.15-6.15-3.45-9.1-3.45S9.05,9,9.05,10.66v.1c0,2.3,1.5,3.05,7.55,4.6,7.1,1.85,11.1,4.4,11.1,10.5V26c0,6.95-5.3,10.85-12.85,10.85A22.27,22.27,0,0,1,0,31.21Z"/><polygon class="cls-2" points="31.4 1.31 39.1 1.31 39.1 29.31 56.55 29.31 56.55 36.31 31.4 36.31 31.4 1.31 31.4 1.31"/><path class="cls-2" d="M56.8,18.91v-.1A18,18,0,0,1,75.15.71c6.3,0,10.1,1.7,13.75,4.8l-4.85,5.85C81.35,9.11,79,7.81,74.9,7.81c-5.6,0-10.05,5-10.05,10.9v.1c0,6.4,4.4,11.1,10.6,11.1a12.29,12.29,0,0,0,7.25-2.1v-5H75V16.16h15.2v15.2a22.72,22.72,0,0,1-15,5.55c-10.9,0-18.4-7.65-18.4-18Z"/><path class="cls-3" d="M122.78,18.56v-.1c0-6.12-4.49-11.22-10.81-11.22s-10.71,5-10.71,11.12v.1c0,6.12,4.49,11.22,10.81,11.22s10.71-5,10.71-11.12Zm-29.73,0v-.1c0-10.15,8-18.46,19-18.46S131,8.21,131,18.36v.1c0,10.15-8,18.46-19,18.46S93.05,28.71,93.05,18.56Z"/><path class="cls-1" d="M139.25,31h0a4,4,0,0,1-4.09-4.08,4,4,0,0,1,1.34-3.13l1.2,1.13a2.63,2.63,0,0,0-1,2,2.35,2.35,0,0,0,2.49,2.27h0a2.36,2.36,0,0,0,2.5-2.34,2.71,2.71,0,0,0-1-2l1.07-1.08A4.11,4.11,0,0,1,139.25,31Z"/><path class="cls-1" d="M140.31,17.55h-.54a5.17,5.17,0,0,0-.31,1.78c0,1.15.49,1.84,1.31,1.84h0c.75,0,1.18-.67,1.18-1.53,0-1.19-.68-2.09-1.67-2.09Zm.56,5.36h0c-1.69,0-2.52-1.32-2.52-3.23a6.56,6.56,0,0,1,.33-2.1h-.19c-1.12,0-1.71.68-1.71,1.94a5.41,5.41,0,0,0,.49,2.24l-1.41.47a6.74,6.74,0,0,1-.64-2.95,3.47,3.47,0,0,1,.88-2.59,3.24,3.24,0,0,1,2.42-.85h4.64v1.75h-1a3.21,3.21,0,0,1,1.14,2.55,2.5,2.5,0,0,1-2.42,2.77Z"/><path class="cls-1" d="M139.26,33.51h0a.82.82,0,0,0-.85.81.78.78,0,0,0,.84.78h0a.81.81,0,0,0,.85-.8.79.79,0,0,0-.83-.79Zm0,2.87h0a2.08,2.08,0,0,1,0-4.15h0a2,2,0,0,1,2,2.09,2,2,0,0,1-2,2.06Z"/></g></g></svg>